<?xml version="1.0" standalone="no"?><!DOCTYPE svg PUBLIC "-//W3C//DTD SVG 1.1//EN" "http://www.w3.org/Graphics/SVG/1.1/DTD/svg11.dtd"><svg t="1566542805239" class="icon" viewBox="0 0 1562 1024" version="1.1" xmlns="http://www.w3.org/2000/svg" p-id="10150" width="305.078125" height="200" xmlns:xlink="http://www.w3.org/1999/xlink"><defs><style type="text/css"></style></defs><path d="M380.224 964.672c0 32 184.384 58.048 411.776 58.048s411.776-25.92 411.776-58.048c0-32.128-184.384-58.048-411.776-58.048-227.456 0-411.776 25.92-411.776 58.048z m0 0" fill="#EAEAEA" p-id="10151"></path><path d="M221.824 695.424h-31.68c-5.824 0-10.56 4.736-10.56 10.56-0.192 2.816 0.896 5.632 2.88 7.616 2.048 2.048 4.8 3.072 7.616 2.88h31.68v31.68c0 5.824 4.736 10.56 10.56 10.56 2.816 0.192 5.632-0.896 7.68-2.88 2.048-2.048 3.072-4.8 2.88-7.68v-31.68h31.68c5.824 0 10.56-4.736 10.56-10.56 0.192-2.88-0.896-5.632-2.88-7.68-2.048-2.048-4.8-3.072-7.616-2.88H242.944v-31.68c0-5.824-4.736-10.56-10.56-10.56-2.816-0.192-5.632 0.896-7.68 2.88-1.984 2.048-3.072 4.8-2.88 7.68v31.744z m0 0" fill="#90999F" p-id="10152"></path><path d="M1383.296 589.888c0 9.536 6.4 17.92 15.68 20.416 9.216 2.496 18.944-1.536 23.744-9.856a21.1072 21.1072 0 0 0-28.8-28.864 21.0752 21.0752 0 0 0-10.624 18.304M15.936 383.936H0.064c0 7.168 4.8 13.44 11.776 15.296 6.912 1.856 14.272-1.152 17.792-7.424 3.584-6.208 2.56-14.08-2.56-19.136a15.872 15.872 0 0 0-27.072 11.2M1319.936 457.856c0-20.416-16.576-36.928-36.928-36.928-20.416 0-36.928 16.576-36.928 36.928 0 20.416 16.512 36.928 36.928 36.928 20.288-0.192 36.672-16.576 36.928-36.928z m-94.976 0c0-32.064 25.984-58.048 58.048-58.048 32.064 0 58.048 25.984 58.048 58.048 0 32.064-25.984 58.048-58.048 58.048a58.496 58.496 0 0 1-58.048-58.048z m0 0M1362.176 56.64c0-20.416-16.512-36.928-36.928-36.928-20.416 0-36.928 16.512-36.928 36.928 0 20.416 16.576 36.928 36.928 36.928 20.288-0.256 36.672-16.64 36.928-36.928z m-52.8 0c0-8.768 7.104-15.808 15.872-15.808 8.768 0 15.808 7.104 15.808 15.872 0 8.768-7.104 15.808-15.872 15.808a16.192 16.192 0 0 1-15.808-15.872z m199.552 268.224h-17.92c-6.272 0.256-11.2 5.376-11.2 11.584 0 6.272 4.928 11.392 11.2 11.584h17.92v17.92c0.256 6.272 5.376 11.2 11.584 11.2 6.272 0 11.392-4.928 11.584-11.2v-17.92h17.92c4.224 0.128 8.256-2.048 10.432-5.696 2.176-3.648 2.176-8.192 0-11.84-2.176-3.648-6.144-5.824-10.432-5.696h-17.92v-17.92c-0.256-6.272-5.376-11.2-11.584-11.2-6.272 0-11.392 4.928-11.584 11.2v17.984z m0 0" fill="#90999F" p-id="10153"></path><path d="M1116.16 843.264H447.808a44.576 44.576 0 0 1-44.352-44.352V323.776H1117.184c24.448 0.128 44.224 19.904 44.352 44.352v430.784c-1.088 24.32-21.12 44.352-45.376 44.352zM402.368 244.608a44.576 44.576 0 0 1 44.352-44.352h162.624c80.256 0 178.432 65.472 267.136 100.288H402.368v-55.936z m0 0" fill="#FFFFFF" p-id="10154"></path><path d="M424.576 831.68a44.576 44.576 0 0 1-44.352-44.352V222.4a44.576 44.576 0 0 1 44.352-44.352h185.856c110.848 0 251.328 123.52 358.976 123.52h168.96c24.448 0.128 44.224 19.904 44.352 44.352v442.432a44.576 44.576 0 0 1-44.352 44.352H424.576v-1.024z m184.768-631.424H446.72a44.576 44.576 0 0 0-44.352 44.352v55.936h474.112c-88.704-35.904-186.88-100.288-267.136-100.288z m506.816 122.496H402.432v442.432a44.576 44.576 0 0 0 44.352 44.352h668.352a44.576 44.576 0 0 0 44.352-44.352V368.128c0.576-11.84-3.712-23.424-11.904-32a43.5712 43.5712 0 0 0-31.424-13.376zM768 453.44c0-6.336-5.056-12.032-12.032-12.032-38.592 0-71.488-24.064-87.936-36.096-3.776-3.136-6.336-4.416-8.256-5.696-5.056-3.776-12.672-1.28-15.808 4.416-3.776 5.056-1.28 12.672 4.416 15.808 1.92 1.28 3.776 2.56 6.336 4.416 17.728 12.672 54.4 39.872 101.888 39.872 6.336 0.704 11.392-4.352 11.392-10.688z m164.544-53.12c-1.92 1.28-4.416 3.776-8.832 5.696-15.808 12.032-48.704 36.096-87.296 36.096-6.336 0-12.032 5.056-12.032 12.032 0 6.336 5.056 12.032 12.032 12.032 46.208 0 83.52-27.2 101.888-39.872 3.136-2.56 5.056-3.776 6.336-4.416 5.056-3.776 6.976-10.752 4.416-15.808-3.84-7.68-11.456-8.96-16.512-5.76z m-58.24 311.936l-77.824-34.816c-3.136-1.28-6.976-1.28-10.112 0l-67.712 34.816c-5.696 3.136-7.616 10.112-5.056 15.168 3.136 5.696 10.112 7.616 15.168 5.056l63.936-31.616 72.128 32.256c1.92 0.64 3.136 1.28 4.416 1.28 4.416 0 8.832-2.56 10.752-6.976 2.56-5.696 0-12.032-5.696-15.168z m0 0" fill="#90999F" p-id="10155"></path><path d="M463.616 300.544l-19.008-197.44s-6.336-30.592 47.552-36.928c53.824-6.336 420.224-45.44 420.224-45.44l134.08 102.4s12.672 23.232 16.896 49.6c4.224 26.432 13.696 128.832 13.696 128.832H463.616v-1.024z m0 0" fill="#FFFAE6" p-id="10156" data-spm-anchor-id="a313x.7781069.0.i8"></path><path d="M976.768 47.104c-3.2-2.56-7.552-3.2-11.328-1.664-3.776 1.536-6.464 4.992-6.976 9.088-0.512 4.032 1.216 8.064 4.544 10.496 13.696 9.472 24.256 17.92 35.904 26.432 5.248 4.224 11.648 3.2 15.872-2.112 4.224-5.248 3.2-11.648-2.112-15.872-11.584-8.384-22.144-16.832-35.904-26.368z m-29.632 90.816l-9.472-43.264c-1.024-6.336-7.424-9.472-13.696-8.448-6.336 1.024-9.472 7.424-8.448 13.696l9.472 43.328c1.024 6.336 7.424 9.472 13.696 8.448 6.336-1.088 9.536-7.424 8.448-13.76z m52.8-5.248l-44.352 7.424c-6.336 1.024-10.56 7.424-9.472 12.672 1.024 5.248 6.336 10.56 12.672 9.536l44.416-7.36c6.336-1.024 10.56-7.424 9.472-12.672-1.024-7.488-6.336-11.712-12.736-9.6z m-78.144-58.048c6.336-1.024 9.472-7.424 8.448-13.76l-5.248-24.256c3.2 2.112 6.336 5.248 10.56 7.424 3.2 2.56 7.552 3.2 11.328 1.664 3.776-1.536 6.464-5.056 6.976-9.088a11.264 11.264 0 0 0-4.544-10.496c-16.896-12.672-23.232-16.896-31.68-23.232l-3.2-2.112h-4.224l-6.336 1.024c-6.336 1.024-10.56 6.336-9.472 12.672 0.256 3.52 2.24 6.656 5.248 8.448l9.472 43.264c0.512 2.816 2.176 5.312 4.544 6.912 2.432 1.536 5.376 2.112 8.128 1.536zM440.384 162.24c6.336-1.024 10.56-6.336 9.472-12.672l-4.224-43.264v-1.024c0-6.336-5.248-10.56-11.648-10.56-6.336 0-10.56 5.248-10.56 11.648v2.112l4.224 43.264c1.088 7.36 6.4 11.584 12.736 10.496z m647.296 80.256c-1.024-6.336-6.336-10.56-12.672-9.472-6.336 1.024-10.56 6.336-9.472 12.672l4.224 44.352c1.024 6.336 6.336 10.56 12.672 9.472 6.336-1.024 10.56-6.336 9.472-12.672l-4.224-44.352z m-13.76-21.12c6.336-1.024 10.56-6.336 9.472-12.672l-4.224-44.352c-1.024-6.336-6.336-10.56-12.672-9.472-6.336 1.024-10.56 6.336-9.472 12.672l4.224 44.352c1.088 6.272 7.424 10.496 12.672 9.472z m-10.56-78.144h3.2c6.336-1.024 10.56-6.336 9.472-12.672v-6.336l-3.2-3.2c-10.56-8.448-21.12-17.92-32.704-27.456-5.248-4.224-11.648-3.136-15.872 2.112-4.224 5.248-3.2 11.648 2.112 15.872l15.872 12.672-8.448 1.024c-6.336 1.024-10.56 7.424-9.536 12.672 1.024 6.336 6.336 10.56 12.672 9.472l25.344-4.224c0.064 1.088 1.088 0.064 1.088 0.064zM871.232 5.952l-44.352 4.224c-6.336 1.024-10.56 6.336-9.472 12.672 1.024 6.336 6.336 10.56 12.672 9.472l44.352-4.224c6.336-1.024 10.56-6.336 9.472-12.672-1.088-5.248-6.336-9.472-12.672-9.472zM449.92 251.968c-6.336 1.024-10.56 6.336-9.472 12.672l4.224 44.352c1.024 6.336 6.336 10.56 12.672 9.472 6.336-1.024 10.56-6.336 9.472-12.672l-4.224-44.352c-1.088-6.272-6.336-10.496-12.672-9.472z m33.792-204.864l-9.472 1.024c-14.656 0.96-28.16 8.256-36.928 20.032-4.032 4.672-3.52 11.712 1.152 15.744 4.608 4.032 11.648 3.584 15.744-0.96 5.248-6.336 13.696-11.648 22.208-11.648l9.472-1.024c6.336-1.024 10.56-6.336 9.472-12.672-0.064-6.272-5.312-11.52-11.648-10.496z m310.4-32.704l-44.352 4.224c-6.336 1.024-10.56 6.336-9.472 12.672 1.024 6.336 6.336 10.56 12.672 9.536l44.352-4.224c6.336-1.024 10.56-6.336 9.472-12.672-1.024-5.312-6.336-10.56-12.672-9.536zM448.832 240.384c6.336-1.024 10.56-6.336 9.472-12.672l-4.224-44.352c-1.024-6.336-6.336-10.56-12.672-9.472-6.336 1.024-10.56 6.336-9.472 12.672l4.224 44.352c1.024 5.248 6.336 10.496 12.672 9.472zM560.768 38.656l-44.352 4.224c-6.336 1.024-10.56 6.336-9.472 12.672 1.024 6.336 6.336 10.56 12.672 9.472l44.352-4.224c6.336-1.024 10.56-6.336 9.472-12.672-1.088-5.248-6.336-9.472-12.672-9.472z m155.2-15.808l-44.352 4.224c-6.336 1.024-10.56 6.336-9.472 12.672 1.024 6.336 6.336 10.56 12.672 9.472l44.352-4.16c6.336-1.024 10.56-6.336 9.472-12.672-1.024-6.336-6.336-10.56-12.672-9.536zM638.912 31.36l-44.352 4.224c-6.336 1.024-10.56 6.336-9.472 12.672 1.024 6.336 6.336 10.56 12.672 9.472l44.416-4.224c6.336-1.024 10.56-6.336 9.472-12.672-1.088-6.4-6.336-10.56-12.736-9.472z m0 0" fill="#90999F" p-id="10157"></path><path d="M653.376 499.52h-160c-5.312 0-9.6-4.288-9.6-9.6s4.288-9.6 9.6-9.6h160c5.312 0 9.6 4.288 9.6 9.6s-4.288 9.6-9.6 9.6zM1084.864 499.52h-160c-5.312 0-9.6-4.288-9.6-9.6s4.288-9.6 9.6-9.6h160c5.312 0 9.6 4.288 9.6 9.6s-4.288 9.6-9.6 9.6z" fill="#90999F" p-id="10158"></path></svg>